<?xml version="1.0" encoding="utf-8"?>
<!-- Svg Vector Icons : http://www.onlinewebfonts.com/icon -->
<!DOCTYPE svg PUBLIC "-//W3C//DTD SVG 1.1//EN" "http://www.w3.org/Graphics/SVG/1.1/DTD/svg11.dtd">
<svg version="1.1" xmlns="http://www.w3.org/2000/svg" xmlns:xlink="http://www.w3.org/1999/xlink" x="0px" y="0px" viewBox="0 0 256 256" enable-background="new 0 0 256 256" xml:space="preserve">
<metadata> Svg Vector Icons : http://www.onlinewebfonts.com/icon </metadata>
<g><g><g><path fill="#000000" d="M122,10.7c-8.7,1.9-17.1,8.5-21,16.5c-2.1,4.3-3.4,9.1-3.4,12.7c0,7.8,3.4,16,8.9,21.7c1.8,2,2.5,2.9,2.5,4c0,1.3-0.1,1.4-1.9,1.4h-1.9v3.8v3.8h1.9h1.9v5.7v5.7h19h19v-5.7v-5.7h1.9h1.9v-3.8v-3.8H149c-1.8,0-1.9-0.1-1.9-1.5c0-1,0.4-1.8,1.4-2.7c2-1.7,5.4-6.6,7.1-10.2c1.7-3.6,2.9-8.6,2.9-12.3c0-10.8-7.2-22.1-17.2-27C134.8,10.2,128.5,9.3,122,10.7z M133.9,18.3c8.5,2.2,14.8,8.8,16.6,17.2c0.8,3.7,0.3,9.7-1,13.1c-1.3,3.4-4.2,7.3-7.5,9.8l-2.5,2v3.3v3.3h-3.8h-3.8l0-8v-7.9l2-1.4c7.2-5.3,7.4-12.7,0.3-18.4c-4.7-3.8-10.7-2.7-15.2,3c-3.9,4.8-2.6,11.1,3.3,15.4l2,1.4v7.9l0,8h-3.8h-3.8v-3.3v-3.3l-2.5-2c-5.4-4.2-8.4-9.8-8.8-16.4c-0.8-11.4,5.9-20.9,16.6-23.8C125.3,17.5,130.5,17.4,133.9,18.3z M130.9,37.6c0.6,0.6,1,1.6,1,2.9c0,1.3-0.3,2.2-1,2.9s-1.6,1-2.9,1c-2.5,0-3.8-1.3-3.8-3.8c0-1.3,0.3-2.2,1-2.9c0.6-0.6,1.6-1,2.9-1C129.3,36.7,130.3,37,130.9,37.6z M139.5,76.6v1.9H128h-11.4v-1.9v-1.9H128h11.4V76.6z"/><path fill="#000000" d="M60.2,79.2c-16.6,3-30,15.6-34,32c-4.5,18.4,5,38,22.7,46.8c6.5,3.2,9.6,3.9,18.1,3.9c4.7,0,8.4-0.2,9.6-0.6l2-0.6l-1-3.6c-0.9-3.2-1.1-3.6-2-3.3c-3.4,1-8.7,1.3-12.7,0.8c-8.7-1.1-14.3-3.9-20.3-10c-6.9-7-9.7-13.9-9.7-24.1c0-6.5,0.7-9.9,3.2-15.3c3.2-6.8,8.6-12.3,15.2-15.6c4.6-2.2,8.2-3.1,13.8-3.5c9.6-0.6,18.3,2.5,25.1,8.9l3.6,3.4l2.9-2.3l2.9-2.3l-3.8-3.6C86.4,81.2,72.7,76.9,60.2,79.2z"/><path fill="#000000" d="M182.6,79c-4.6,0.8-11.6,3.3-15.6,5.8c-3.5,2.2-10.4,8.1-10.4,8.9c0,0.2,1.2,1.4,2.6,2.6l2.6,2.2l3.7-3.4c6.9-6.4,15.5-9.4,25.1-8.9c5.7,0.3,9.3,1.2,13.8,3.5c8.6,4.2,15,12.1,17.6,21.6c1.3,4.9,1.2,14.4-0.2,19c-3,9.7-8.9,16.8-17.4,20.9c-6.2,3-13.5,4.3-19.7,3.4c-2-0.3-4-0.6-4.5-0.7c-0.8-0.1-1.1,0.5-1.8,2.9c-0.5,1.7-0.8,3.3-0.7,3.6c0.6,1.6,13.5,2.2,19.4,1c15.3-3.3,28.2-15.6,32.3-31.3c1.4-5.4,1.4-14.1,0-19.6c-4.8-18.1-20.8-31.2-39-31.9C187.6,78.7,184.1,78.7,182.6,79z"/><path fill="#000000" d="M121.1,98.2c-16.8,3.2-30,15.6-34,32.1c-1.2,5.2-1.3,13.1-0.2,17.9c3.6,15.2,14.6,26.9,29.5,31.7c4.5,1.4,14.6,1.9,19.5,0.8c7.4-1.6,14.4-5.3,20.2-10.7c6.2-5.8,10.3-12.6,12.5-20.7c1.4-5.4,1.4-14.1,0-19.6c-4.8-18.1-20.7-31.1-39-31.9C126.3,97.6,123.2,97.8,121.1,98.2z M137.3,106.3c11.6,3.1,20.7,12.4,23.8,24c1.2,4.3,1.2,13.8,0,18.1c-2.6,9.7-9.1,17.7-17.7,21.9c-5.3,2.6-9.4,3.5-15.7,3.5c-6.4,0-10.5-0.9-15.9-3.6c-3.3-1.6-4.9-2.8-8.3-6.3c-7.2-7.1-9.9-13.9-9.9-24.3c0-6.5,0.7-9.9,3.3-15.4c4.5-9.6,12.7-16,23.4-18.4C124.3,105,133.2,105.2,137.3,106.3z"/><path fill="#000000" d="M29.4,158.5c-8.6,6.9-14.9,17-17.9,28.5c-1,3.7-1,5.5-1.2,21.9l-0.2,18h24.8h24.8v-3.8v-3.8h-21h-21l0.2-14.4c0.2-14.1,0.2-14.5,1.5-18.7c2.6-8.7,7.7-16.3,14.5-21.7c2-1.6,3.6-3.2,3.5-3.4c-0.3-1-3.5-5.6-3.9-5.6C33.2,155.6,31.4,156.9,29.4,158.5z"/><path fill="#000000" d="M221.4,156.8c-0.5,0.8-1.3,2.1-2,3.1l-1,1.8l2.3,1.5c7.2,4.9,13.3,13.6,16.2,23.1c1.2,4.1,1.3,4.6,1.5,18.5l0.2,14.4h-19.1c-18.7,0-19.1,0-19.1-1c0-0.9-0.3-1-3.8-1h-3.8v4.8v4.8h26.6H246v-15.6c0-8.6-0.2-17.3-0.5-19.4c-1.6-11.2-6.9-21.9-14.9-29.9c-2.9-2.9-7.3-6.4-8-6.4C222.4,155.6,221.9,156.1,221.4,156.8z"/><path fill="#000000" d="M90.2,177.5c-8.6,6.9-14.9,17-17.9,28.5c-1,3.7-1,5.5-1.2,21.9l-0.2,18H128h57.2L185,228c-0.2-16.4-0.3-18.3-1.2-21.9c-3.2-12.7-10.7-23.7-20.5-30.5l-1.6-1.1l-1,1.3c-0.6,0.7-1.5,2.1-2.1,3.1l-1,1.9l2.2,1.5c7.2,4.9,13.3,13.6,16.2,23.1c1.2,4.1,1.3,4.6,1.5,18.6l0.2,14.4H154c-13,0-23.6-0.1-23.6-0.2c0-0.1,6.2-10.8,13.7-23.8l13.7-23.5l-2.2-1.3c-1.2-0.7-2.7-1.6-3.2-2c-1-0.6-1.4-0.1-12.6,19.1c-6.3,10.8-11.7,19.7-11.9,19.7s-5.6-8.9-11.9-19.7c-11.2-19.2-11.6-19.7-12.6-19.1c-0.5,0.3-2,1.2-3.2,2l-2.2,1.3l13.7,23.5c7.6,12.9,13.7,23.6,13.7,23.8c0,0.1-10.6,0.2-23.6,0.2H78.5l0.2-14.1c0.2-12.8,0.3-14.6,1.2-18c2.6-9.6,9-18.9,16.4-24l2.3-1.5l-1-1.8c-1.8-3-2.9-4.4-3.3-4.4C94,174.6,92.2,175.9,90.2,177.5z"/></g></g></g>
</svg>